<svg width="115" height="51" viewBox="0 0 115 51" fill="none" xmlns="http://www.w3.org/2000/svg">
<g filter="url(#filter0_d_449_193)">
<g filter="url(#filter1_d_449_193)">
<rect width="99.436" height="41.3201" rx="20.6601" transform="matrix(-0.99999 -0.00653959 -0.0136729 -0.999919 104 42.2164)" fill="white"/>
<rect x="-0.506831" y="-0.503229" width="98.436" height="40.3201" rx="20.1601" transform="matrix(-0.99999 -0.00653959 -0.0136729 -0.999919 102.979 41.2067)" stroke="black"/>
</g>
<line y1="-0.5" x2="39.8416" y2="-0.5" transform="matrix(-0.0133922 -0.999917 0.999993 0.00680268 55.9065 41.0622)" stroke="black"/>
<path fill-rule="evenodd" clip-rule="evenodd" d="M53.1767 2.48861L53.6789 39.9904L25.6177 39.7996C15.2611 39.7291 6.75293 31.2769 6.61424 20.9211C6.47554 10.5652 14.7588 2.22726 25.1155 2.29772L53.1767 2.48861Z" fill="#FF5435"/>
</g>
<path d="M67.552 9.13753H68.848V10.7575C68.848 13.5055 67.8881 16.0855 65.788 17.1175L64.828 15.8335C66.7 14.9575 67.552 12.8215 67.552 10.7575V9.13753ZM67.876 9.13753H69.148V10.7575C69.148 12.7495 69.9401 14.7775 71.7161 15.6415L70.7561 16.9135C68.7521 15.8935 67.876 13.4215 67.876 10.7575V9.13753ZM72.1601 8.28553H73.7681V19.3975H72.1601V8.28553ZM73.4081 12.5575H75.3761V13.8895H73.4081V12.5575ZM78.7951 9.52153H80.1151V10.4575C80.1151 12.5575 79.0951 14.4535 76.9591 15.1495L76.1431 13.9015C77.9911 13.3015 78.7951 11.8615 78.7951 10.4575V9.52153ZM79.1191 9.52153H80.4271V10.4575C80.4271 11.7775 81.2191 13.1335 83.0311 13.7095L82.2151 14.9455C80.1271 14.2855 79.1191 12.4735 79.1191 10.4575V9.52153ZM76.5631 9.07753H82.6111V10.3375H76.5631V9.07753ZM83.7271 8.29753H85.3351V16.3135H83.7271V8.29753ZM77.9311 17.9335H85.6111V19.2055H77.9311V17.9335ZM77.9311 15.5935H79.5271V18.5695H77.9311V15.5935ZM72.6881 23.2975H74.2961V31.2775H72.6881V23.2975ZM66.892 32.9335H74.5721V34.2055H66.892V32.9335ZM66.892 30.4735H68.488V33.4495H66.892V30.4735ZM68.2481 23.9935C69.952 23.9935 71.2601 25.1695 71.2601 26.8135C71.2601 28.4455 69.952 29.6335 68.2481 29.6335C66.544 29.6335 65.224 28.4455 65.224 26.8135C65.224 25.1695 66.544 23.9935 68.2481 23.9935ZM68.2481 25.3735C67.4201 25.3735 66.784 25.9015 66.784 26.8135C66.784 27.7135 67.4201 28.2415 68.2481 28.2415C69.064 28.2415 69.7 27.7135 69.7 26.8135C69.7 25.9015 69.064 25.3735 68.2481 25.3735ZM78.6991 23.7895H80.0191V24.8575C80.0191 26.9575 78.9991 28.8655 76.8271 29.5615L76.0471 28.3015C77.9191 27.7015 78.6991 26.2615 78.6991 24.8575V23.7895ZM79.0231 23.7895H80.3311V24.8575C80.3311 26.2255 81.0991 27.5695 82.9111 28.1215L82.1311 29.3695C80.0071 28.6975 79.0231 26.9215 79.0231 24.8575V23.7895ZM77.7511 30.4015H85.3351V34.3975H83.7271V31.6735H77.7511V30.4015ZM83.7271 23.2855H85.3351V29.9095H83.7271V23.2855Z" fill="black"/>
<path d="M38.0068 14.9895H41.2068V17.1695H38.0068V14.9895ZM38.0068 19.0095H41.2068V21.1895H38.0068V19.0095ZM36.1668 12.5895H38.8268V23.5095H36.1668V12.5895ZM26.4668 24.2695H38.8268V31.1095H36.1668V26.3895H26.4668V24.2695ZM29.4068 13.5895C32.2668 13.5895 34.4468 15.4895 34.4468 18.1295C34.4468 20.7695 32.2668 22.6495 29.4068 22.6495C26.5468 22.6495 24.3668 20.7695 24.3668 18.1295C24.3668 15.4895 26.5468 13.5895 29.4068 13.5895ZM29.4068 15.8495C28.0068 15.8495 26.9668 16.6695 26.9668 18.1295C26.9668 19.5895 28.0068 20.4295 29.4068 20.4295C30.8068 20.4295 31.8468 19.5895 31.8468 18.1295C31.8468 16.6695 30.8068 15.8495 29.4068 15.8495Z" fill="white"/>
<defs>
<filter id="filter0_d_449_193" x="0.280418" y="0.384033" width="107.439" height="49.6978" filterUnits="userSpaceOnUse" color-interpolation-filters="sRGB">
<feFlood flood-opacity="0" result="BackgroundImageFix"/>
<feColorMatrix in="SourceAlpha" type="matrix" values="0 0 0 0 0 0 0 0 0 0 0 0 0 0 0 0 0 0 127 0" result="hardAlpha"/>
<feOffset dy="4"/>
<feGaussianBlur stdDeviation="2"/>
<feComposite in2="hardAlpha" operator="out"/>
<feColorMatrix type="matrix" values="0 0 0 0 0 0 0 0 0 0 0 0 0 0 0 0 0 0 0.5 0"/>
<feBlend mode="normal" in2="BackgroundImageFix" result="effect1_dropShadow_449_193"/>
<feBlend mode="normal" in="SourceGraphic" in2="effect1_dropShadow_449_193" result="shape"/>
</filter>
<filter id="filter1_d_449_193" x="4.28042" y="0.384033" width="110.439" height="49.6978" filterUnits="userSpaceOnUse" color-interpolation-filters="sRGB">
<feFlood flood-opacity="0" result="BackgroundImageFix"/>
<feColorMatrix in="SourceAlpha" type="matrix" values="0 0 0 0 0 0 0 0 0 0 0 0 0 0 0 0 0 0 127 0" result="hardAlpha"/>
<feOffset dx="7" dy="4"/>
<feGaussianBlur stdDeviation="2"/>
<feComposite in2="hardAlpha" operator="out"/>
<feColorMatrix type="matrix" values="0 0 0 0 0 0 0 0 0 0 0 0 0 0 0 0 0 0 0.5 0"/>
<feBlend mode="normal" in2="BackgroundImageFix" result="effect1_dropShadow_449_193"/>
<feBlend mode="normal" in="SourceGraphic" in2="effect1_dropShadow_449_193" result="shape"/>
</filter>
</defs>
</svg>
